<svg width="94" height="44" viewBox="0 0 94 44" fill="none" xmlns="http://www.w3.org/2000/svg">
<path d="M47.5293 20.6765C47.0853 20.0857 46.8729 19.3874 46.9233 18.6845V15.7964C46.9233 14.9111 47.1242 14.2383 47.5259 13.778C47.9277 13.3177 48.6177 13.0886 49.596 13.0905C50.5153 13.0905 51.1679 13.2864 51.5537 13.6781C51.9746 14.1779 52.1794 14.7892 52.1325 15.4057V16.0844H50.488V15.3969C50.4939 15.1719 50.4779 14.9468 50.4404 14.7241C50.4167 14.5718 50.3339 14.4309 50.2055 14.3245C50.0366 14.2098 49.8239 14.1542 49.6096 14.1688C49.3843 14.1543 49.1609 14.213 48.9832 14.3333C48.8399 14.4512 48.7444 14.6057 48.7108 14.774C48.6636 15.0098 48.642 15.2488 48.6461 15.488V18.993C48.6202 19.3312 48.6927 19.6695 48.8572 19.9773C48.939 20.0814 49.0526 20.1639 49.1854 20.2158C49.3182 20.2676 49.465 20.2868 49.6096 20.2711C49.8203 20.286 50.0293 20.2291 50.1918 20.1124C50.3258 19.9977 50.412 19.8479 50.437 19.6864C50.4754 19.4539 50.4925 19.2191 50.488 18.9842V18.2732H52.1325V18.9225C52.1787 19.5652 51.9789 20.2031 51.5639 20.7382C51.186 21.1672 50.5425 21.3816 49.596 21.3816C48.6495 21.3816 47.9345 21.1525 47.5293 20.6765Z" fill="#8E8F99"/>
<path d="M54.3763 20.7059C53.961 20.2564 53.7533 19.6012 53.7533 18.7345V15.6966C53.7533 14.8387 53.961 14.1893 54.3763 13.7486C54.7917 13.3079 55.4863 13.0886 56.46 13.0905C57.4269 13.0905 58.1181 13.3099 58.5334 13.7486C58.9488 14.1893 59.1599 14.8387 59.1599 15.6966V18.7345C59.1599 19.5924 58.9488 20.2505 58.5266 20.703C58.1044 21.1554 57.4167 21.3816 56.46 21.3816C55.5033 21.3816 54.7951 21.1525 54.3763 20.7059ZM57.226 19.9773C57.3748 19.6957 57.4425 19.3873 57.4235 19.0782V15.3587C57.4426 15.0556 57.376 14.7532 57.2294 14.4773C57.146 14.371 57.0296 14.287 56.8936 14.2351C56.7575 14.1831 56.6073 14.1652 56.46 14.1835C56.3123 14.1657 56.1617 14.1838 56.0252 14.2357C55.8887 14.2876 55.7717 14.3712 55.6871 14.4773C55.5374 14.7523 55.4695 15.0553 55.4897 15.3587V19.0959C55.469 19.405 55.5368 19.7137 55.6871 19.9949C55.783 20.0897 55.9013 20.1656 56.034 20.2177C56.1667 20.2697 56.3108 20.2966 56.4566 20.2966C56.6024 20.2966 56.7465 20.2697 56.8792 20.2177C57.0119 20.1656 57.1302 20.0897 57.226 19.9949V19.9773Z" fill="#8E8F99"/>
<path d="M61.1378 13.1793H62.9083L64.2395 18.7844L65.6014 13.1793H67.3242L67.4978 21.2697H66.2244L66.0883 15.647L64.774 21.2697H63.7526L62.3907 15.6264L62.2648 21.2697H60.9778L61.1378 13.1793Z" fill="#8E8F99"/>
<path d="M69.4829 13.1793H72.2406C73.8295 13.1793 74.6239 13.9451 74.6239 15.4766C74.6239 16.9435 73.7875 17.6759 72.1147 17.674H71.175V21.2697H69.4727L69.4829 13.1793ZM71.8389 16.637C72.0071 16.6554 72.1779 16.6421 72.3396 16.5979C72.5012 16.5538 72.6499 16.4799 72.7752 16.3814C72.9704 16.1081 73.0565 15.7872 73.0203 15.4678C73.0292 15.221 73.0018 14.9742 72.9386 14.7333C72.9143 14.6529 72.8717 14.5774 72.8133 14.5113C72.7548 14.4453 72.6817 14.3899 72.5981 14.3485C72.3618 14.2507 72.1006 14.2062 71.8389 14.2192H71.1784V16.637H71.8389Z" fill="#8E8F99"/>
<path d="M77.0787 13.1793H78.907L80.783 21.2697H79.1964L78.8253 19.4043H77.1945L76.8132 21.2697H75.2028L77.0787 13.1793ZM78.6415 18.4671L78.0048 15.0712L77.3681 18.4671H78.6415Z" fill="#8E8F99"/>
<path d="M82.2981 13.1793H83.4897L85.7709 17.7944V13.1793H87.1838V21.2697H86.0501L83.7553 16.4519V21.2697H82.2947L82.2981 13.1793Z" fill="#8E8F99"/>
<path d="M90.4932 18.1849L88.5968 13.1906H90.1936L91.3512 16.3987L92.4373 13.1906H94L92.1274 18.1849V21.2696H90.4932V18.1849Z" fill="#8E8F99"/>
<path d="M50.1579 24.8069V25.2299H48.7688V28.5175H48.1866V25.2299H46.7906V24.8069H50.1579Z" fill="#8E8F99"/>
<path d="M54.5123 28.5178H54.0629C54.0173 28.5202 53.9722 28.5076 53.9369 28.4825C53.9029 28.461 53.8769 28.4314 53.862 28.3973L53.4603 27.516H51.5332L51.1314 28.3973C51.12 28.4342 51.0991 28.4683 51.0702 28.4972C51.0345 28.5218 50.9897 28.5343 50.9442 28.5324H50.4948L52.1971 24.8221H52.7895L54.5123 28.5178ZM51.6932 27.1399H53.3003L52.6193 25.6299C52.5691 25.5157 52.527 25.399 52.4933 25.2803C52.4695 25.3509 52.4491 25.4184 52.4286 25.4772L52.3674 25.6329L51.6932 27.1399Z" fill="#8E8F99"/>
<path d="M57.4472 28.1534C57.5538 28.1582 57.6606 28.1582 57.7672 28.1534C57.8593 28.1452 57.9504 28.1305 58.0396 28.1093C58.123 28.0917 58.2049 28.0691 58.2848 28.0418C58.3597 28.0153 58.4346 27.983 58.5129 27.9507V27.1162H57.8319C57.8151 27.1171 57.7982 27.1149 57.7824 27.1098C57.7666 27.1048 57.7522 27.0969 57.74 27.0869C57.7288 27.0785 57.72 27.0681 57.7141 27.0564C57.7082 27.0447 57.7054 27.032 57.706 27.0193V26.7343H59.027V28.1564C58.9192 28.2229 58.8053 28.2819 58.6865 28.3326C58.5651 28.3843 58.4386 28.4266 58.3086 28.459C58.1694 28.4943 58.027 28.5199 57.883 28.5354C57.7179 28.5512 57.552 28.559 57.3859 28.5589C57.0923 28.561 56.8009 28.5141 56.5279 28.4208C56.273 28.3323 56.0414 28.2004 55.847 28.0329C55.6574 27.8638 55.5082 27.6641 55.4078 27.4453C55.3005 27.1994 55.2474 26.9383 55.2512 26.6755C55.2476 26.4111 55.2995 26.1483 55.4044 25.8998C55.5023 25.6799 55.6518 25.4799 55.8436 25.3122C56.0379 25.1453 56.2696 25.0143 56.5245 24.9273C56.8161 24.8327 57.1255 24.7858 57.437 24.7892C57.5955 24.789 57.7537 24.7998 57.9102 24.8215C58.0486 24.841 58.1844 24.8725 58.3154 24.9155C58.4345 24.9542 58.5486 25.0034 58.6559 25.0625C58.7602 25.1204 58.8593 25.1853 58.9521 25.2564L58.7887 25.4856C58.7759 25.5065 58.7568 25.5241 58.7334 25.5365C58.7101 25.5489 58.6833 25.5556 58.6559 25.5561C58.6182 25.555 58.5816 25.5448 58.5503 25.5267C58.4993 25.5032 58.4448 25.4738 58.3835 25.4385C58.3111 25.3994 58.2348 25.3659 58.1554 25.3386C58.0539 25.3035 57.9491 25.276 57.8421 25.2564C57.6995 25.2337 57.5547 25.2229 57.4097 25.2241C57.1851 25.2219 56.9621 25.2568 56.7526 25.3269C56.5632 25.3925 56.3924 25.4927 56.2522 25.6207C56.1111 25.7541 56.0033 25.9111 55.9355 26.082C55.7834 26.4839 55.7834 26.9171 55.9355 27.319C56.01 27.4935 56.126 27.6526 56.276 27.7861C56.4156 27.9134 56.5851 28.0136 56.7731 28.08C56.9896 28.1441 57.219 28.1691 57.4472 28.1534Z" fill="#8E8F99"/>
<path d="M62.8744 28.0944H64.7334V28.5175H62.3058V24.8069H62.888L62.8744 28.0944Z" fill="#8E8F99"/>
<path d="M66.6672 28.5175H66.085V24.8069H66.6672V28.5175Z" fill="#8E8F99"/>
<path d="M68.8325 24.8245C68.8671 24.8416 68.8973 24.8646 68.9211 24.8921L71.4098 27.6892C71.4065 27.6451 71.4065 27.601 71.4098 27.5569C71.4098 27.5158 71.4098 27.4747 71.4098 27.4365V24.7922H71.9171V28.5177H71.6243C71.581 28.5208 71.5374 28.5136 71.4984 28.4971C71.463 28.4786 71.4319 28.4547 71.4064 28.4266L68.9211 25.6325C68.9211 25.6766 68.9211 25.7177 68.9211 25.7588C68.9211 25.8 68.9211 25.8382 68.9211 25.8734V28.5177H68.4342V24.8069H68.7372C68.7701 24.807 68.8025 24.813 68.8325 24.8245Z" fill="#8E8F99"/>
<path d="M76.2037 24.8069V25.2153H74.1405V26.4404H75.8122V26.8341H74.1405V28.1003H76.2037V28.5087H73.5413V24.8069H76.2037Z" fill="#8E8F99"/>
<path d="M15.1952 1.89198L41.047 8.22602V30.4216L15.1952 24.0905V1.89198ZM13.5371 0V25.1687L42.7017 32.3165V7.15076L13.5371 0Z" fill="#8E8F99"/>
<path d="M29.168 44L0 36.8462V11.6802L29.168 18.831V44Z" fill="#8E8F99"/>
<path d="M14.0205 1.60698L39.5352 7.86159L28.6845 17.2273L3.16636 10.9698L14.0205 1.60698ZM13.537 0L0 11.6807L29.168 18.8314L42.7016 7.15063L13.537 0Z" fill="#8E8F99"/>
<path d="M30.8091 42.5841L42.7016 32.3195L30.8091 29.4023V42.5841Z" fill="#8E8F99"/>
</svg>
