<svg width="16" height="16" viewBox="0 0 16 16" fill="none" xmlns="http://www.w3.org/2000/svg">
<g clip-path="url(#clip0_679354_400)">
<path d="M15.9961 16V15.9994H16.0001V10.1314C16.0001 7.2607 15.3821 5.04937 12.0261 5.04937C10.4128 5.04937 9.33009 5.9347 8.88809 6.77404H8.84143V5.31737H5.65942V15.9994H8.97276V10.71C8.97276 9.31737 9.23676 7.9707 10.9614 7.9707C12.6608 7.9707 12.6861 9.56004 12.6861 10.7994V16H15.9961Z" fill="#F4F4FD"/>
<path d="M0.263916 5.31797H3.58125V16H0.263916V5.31797Z" fill="#F4F4FD"/>
<path d="M1.92133 0C0.860667 0 0 0.860667 0 1.92133C0 2.982 0.860667 3.86067 1.92133 3.86067C2.982 3.86067 3.84267 2.982 3.84267 1.92133C3.842 0.860667 2.98133 0 1.92133 0V0Z" fill="#F4F4FD"/>
</g>
<defs>
<clipPath id="clip0_679354_400">
<rect width="16" height="16" fill="white"/>
</clipPath>
</defs>
</svg>
