<svg width="18" height="24" viewBox="0 0 18 24" fill="none" xmlns="http://www.w3.org/2000/svg">
<g clip-path="url(#clip0_302815_5425)">
<path d="M4.4502 5.5H5.70215C6.18557 5.50008 6.58837 5.85927 6.64551 6.33984L6.85547 8.16211C6.88859 8.45211 6.78875 8.73456 6.58594 8.9375L5.24707 10.2764L4.99121 10.5332L5.1543 10.8564C6.24468 13.0069 8.00105 14.7549 10.1426 15.8447L10.4668 16.0098L10.7236 15.7529L12.0547 14.4209C12.2578 14.2179 12.5408 14.119 12.8311 14.1523L14.6699 14.3623V14.3613C15.1516 14.4198 15.5046 14.8237 15.5 15.293V16.5498C15.5 17.098 15.0446 17.5295 14.5332 17.498C8.61173 17.1301 3.86987 12.3951 3.50195 6.4668C3.47045 5.95536 3.90202 5.5 4.4502 5.5Z" fill="#2E2F42" stroke="black"/>
</g>
<defs>
<clipPath id="clip0_302815_5425">
<rect width="18" height="24" fill="white"/>
</clipPath>
</defs>
</svg>
