<svg width="63" height="45" viewBox="0 0 63 45" fill="none" xmlns="http://www.w3.org/2000/svg">
<path d="M4.79189 37.6064C5.03736 37.8799 5.16811 38.2224 5.16126 38.574C5.17379 38.8033 5.12885 39.0323 5.02977 39.2439C4.93069 39.4554 4.78001 39.6442 4.5889 39.7963C4.11204 40.1205 3.52126 40.279 2.92505 40.2427H0V34.1103H2.86515C3.43071 34.0764 3.99178 34.2204 4.45246 34.5177C4.63749 34.6571 4.78401 34.8333 4.88045 35.0325C4.97689 35.2316 5.02062 35.4482 5.00819 35.6651C5.025 36.0034 4.90698 36.3359 4.67542 36.6028C4.4531 36.8464 4.14588 37.0153 3.80356 37.0821C4.19162 37.1459 4.54189 37.3317 4.79189 37.6064ZM1.36103 36.6807H2.58562C2.86394 36.6992 3.14036 36.6269 3.3643 36.4769C3.45625 36.4019 3.52779 36.3089 3.57337 36.205C3.61896 36.1011 3.63737 35.9891 3.62719 35.8778C3.63583 35.7669 3.61704 35.6556 3.57215 35.552C3.52727 35.4484 3.45742 35.355 3.36763 35.2786C3.13699 35.1245 2.85198 35.051 2.56566 35.0719H1.36103V36.6807ZM3.4841 39.0324C3.58239 38.9556 3.65965 38.8594 3.70986 38.7513C3.76008 38.6432 3.7819 38.5262 3.77361 38.4092C3.78111 38.291 3.7583 38.1727 3.70694 38.0636C3.65559 37.9545 3.57707 37.8575 3.47745 37.7801C3.23785 37.6202 2.94319 37.5417 2.64552 37.5584H1.36103V39.2451H2.66216C2.95502 39.2603 3.24492 39.1853 3.4841 39.0324Z" fill="#8E8F99"/>
<path d="M10.6487 40.2427L9.05471 37.846H8.45573V40.2427H7.08472V34.1103H9.68032C10.3346 34.0692 10.9814 34.2557 11.4873 34.6315C11.8501 34.9644 12.0689 35.4029 12.1043 35.8682C12.1397 36.3334 11.9893 36.7947 11.6803 37.169C11.36 37.4993 10.9226 37.7195 10.4424 37.7921L12.1395 40.2427H10.6487ZM8.45573 37.0102H9.57716C10.3558 37.0102 10.7452 36.7006 10.7452 36.0815C10.7531 35.9551 10.7318 35.8285 10.6825 35.7099C10.6333 35.5913 10.5571 35.4832 10.459 35.3925C10.2129 35.2082 9.89602 35.1189 9.57716 35.1438H8.44242L8.45573 37.0102Z" fill="#8E8F99"/>
<path d="M18.1426 39.0084H15.4106L14.928 40.2426H13.4905L15.9996 34.1791H17.5536L20.0527 40.2426H18.6151L18.1426 39.0084ZM17.7766 38.0797L16.7782 35.4913L15.7799 38.0797H17.7766Z" fill="#8E8F99"/>
<path d="M27.5234 40.2426H26.1624L23.1109 36.0725V40.2426H21.7532V34.1102H23.1109L26.1624 38.3044V34.1102H27.5234V40.2426Z" fill="#8E8F99"/>
<path d="M35.2904 38.7747C35.009 39.2377 34.5802 39.6144 34.0591 39.8562C33.4667 40.1256 32.8092 40.2584 32.1457 40.2427H29.7231V34.1103H32.1457C32.8081 34.0947 33.4647 34.2242 34.0591 34.4877C34.5801 34.7241 35.0094 35.097 35.2904 35.5572C35.5705 36.056 35.7165 36.6071 35.7165 37.166C35.7165 37.7249 35.5705 38.276 35.2904 38.7747ZM33.733 38.6279C34.1215 38.2205 34.335 37.7014 34.335 37.1645C34.335 36.6276 34.1215 36.1084 33.733 35.701C33.2635 35.332 32.6513 35.1447 32.0292 35.1798H31.0842V39.1492H32.0292C32.6513 39.1843 33.2635 38.9969 33.733 38.6279Z" fill="#8E8F99"/>
<path d="M18.9946 0C18.9946 0 36.5616 5.97064 36.1889 14.6105V29.2241C36.1889 29.2241 18.6352 23.2504 19.0013 14.6105L18.9946 0Z" fill="#8E8F99"/>
<path d="M51.8389 25.8027C55.1565 23.7473 58.9941 22.4741 63 22.0999V17.5253C58.3842 19.1269 54.4686 22.0308 51.8389 25.8027Z" fill="#8E8F99"/>
<path d="M49.8456 27.181C52.5611 22.2586 57.2686 18.4601 63 16.5669V3.38538C63 3.38538 37.9823 11.8905 38.5114 24.1942V45.0001C38.5114 45.0001 39.6262 44.6196 41.3799 43.9066C41.3799 43.2415 41.3799 42.5705 41.4598 41.8964C41.9776 36.1844 44.9939 30.8914 49.8456 27.181Z" fill="#8E8F99"/>
<path d="M47.4665 34.9102C47.5979 33.4672 47.8911 32.04 48.3416 30.6501C45.3206 33.8543 43.4912 37.8304 43.1105 42.0192C43.0739 42.4147 43.0539 42.8101 43.0439 43.2175C44.4649 42.6034 46.1187 41.8365 47.8558 40.9347C47.4125 38.953 47.2814 36.9249 47.4665 34.9102Z" fill="#8E8F99"/>
<path d="M48.4612 34.9851C48.2947 36.8078 48.3988 38.6424 48.7707 40.4404C55.6058 36.7586 63.2861 31.0696 62.99 24.1942V23.595C58.1066 24.0869 53.5377 26.0088 49.9853 29.0654C49.1536 30.9595 48.6399 32.9547 48.4612 34.9851Z" fill="#8E8F99"/>
</svg>
